<?xml version="1.0" encoding="utf-8"?>
<!-- Generator: Adobe Illustrator 16.0.0, SVG Export Plug-In . SVG Version: 6.00 Build 0)  -->
<!DOCTYPE svg PUBLIC "-//W3C//DTD SVG 1.1//EN" "http://www.w3.org/Graphics/SVG/1.1/DTD/svg11.dtd">
<svg version="1.1" id="Layer_1" xmlns="http://www.w3.org/2000/svg" xmlns:xlink="http://www.w3.org/1999/xlink" x="0px" y="0px"
	 width="841.89px" height="595.28px" viewBox="0 0 841.89 595.28" enable-background="new 0 0 841.89 595.28" xml:space="preserve">
<g>
	<g>
		<path fill="#5C4837" d="M418.345,277.08c-10.399-8.575-22.548-5.418-29.319-2.482c21.734,4.594,26.779,19.491,26.779,19.491
			c-7.274-12.542-20.752-16.454-30.693-17.546c-0.857,0.49-1.334,0.813-1.334,0.813s6.105,0.963,5.207,5.834
			c-1.184,6.424,0.126,15.647,11.323,17.145c15.591,2.085,16.325,6.549,16.879,11.959
			C417.187,312.293,434.395,290.314,418.345,277.08z M371.582,306.061c-4.884,0-8.078,3.56-8.078,9.705
			c0,7.232,3.796,9.742,8.567,9.742c3.345,0,5.186-1.011,7.14-2.959l-2.443-2.286c-1.352,1.349-2.479,1.948-4.621,1.948
			c-3.119,0-4.847-2.061-4.847-5.32h12.362v-1.688C379.662,309.809,376.693,306.061,371.582,306.061z M367.3,314.23
			c0.036-1.162,0.112-1.725,0.487-2.587c0.602-1.423,1.992-2.398,3.795-2.398c1.804,0,3.157,0.976,3.758,2.398
			c0.376,0.862,0.488,1.425,0.526,2.587H367.3z M389.121,319.663l-4.509-13.378h-4.059l6.989,18.998h3.119l6.988-18.998h-4.059
			L389.121,319.663z M406.303,306.061c-4.884,0-8.078,3.56-8.078,9.705c0,7.232,3.796,9.742,8.567,9.742
			c3.345,0,5.187-1.011,7.14-2.959l-2.443-2.286c-1.352,1.349-2.479,1.948-4.621,1.948c-3.119,0-4.847-2.061-4.847-5.32h12.362
			v-1.688C414.383,309.809,411.414,306.061,406.303,306.061z M402.021,314.23c0.036-1.162,0.112-1.725,0.487-2.587
			c0.602-1.423,1.992-2.398,3.795-2.398c1.804,0,3.158,0.976,3.758,2.398c0.376,0.862,0.488,1.425,0.527,2.587H402.021z
			 M425.697,317.401l-2.345-0.209c-2.044-0.21-2.945-0.899-2.945-2.427c0-1.799,1.292-2.789,3.696-2.789
			c1.594,0,2.945,0.421,4.058,1.229l1.021-1.019c-1.292-0.959-3.065-1.529-5.079-1.529c-3.154,0-5.199,1.589-5.199,4.107
			c0,2.276,1.443,3.535,4.359,3.774l2.402,0.21c1.924,0.21,2.766,0.899,2.766,2.428c0,1.948-1.503,2.937-4.357,2.937
			c-2.043,0-3.637-0.599-4.748-1.768l-1.053,1.05c1.473,1.408,3.336,2.066,5.86,2.066c3.576,0,5.8-1.647,5.8-4.285
			C429.934,318.36,428.102,317.643,425.697,317.401z M438.383,319.813v-21.208h-3.833v21.433c0,2.811,1.577,5.246,5.224,5.246h2.367
			v-0.01C440.535,325.123,438.383,322.992,438.383,319.813z M450.025,306.061c-3.155,0-5.035,0.638-6.838,2.735l2.518,2.361
			c1.053-1.349,2.066-1.836,4.172-1.836c2.968,0,4.17,1.161,4.17,3.56v1.35h-5.035c-4.359,0-6.575,2.285-6.575,5.47
			c0,1.612,0.526,3.073,1.503,4.084c1.164,1.162,2.743,1.724,5.11,1.724c2.366,0,3.683-0.562,5.073-1.948v1.724h3.757V312.58
			C457.88,308.271,455.25,306.061,450.025,306.061z M454.047,318.426c0,1.35-0.262,2.248-0.827,2.811
			c-1.015,0.975-2.104,1.088-3.568,1.088c-2.405,0-3.495-0.976-3.495-2.698c0-1.724,1.164-2.735,3.419-2.735h4.472V318.426z
			 M475.357,307.748c-1.053-1.05-2.707-1.688-4.623-1.688c-2.029,0-3.606,0.487-4.997,2.137v-9.593h-3.833v26.679h3.758v-2.022
			c1.428,1.724,2.968,2.247,5.034,2.247c1.917,0,3.608-0.636,4.661-1.686c1.915-1.91,2.141-5.172,2.141-8.057
			S477.272,309.658,475.357,307.748z M469.721,322.099c-3.458,0-3.983-2.96-3.983-6.333c0-3.372,0.525-6.296,3.983-6.296
			c3.457,0,3.944,2.924,3.944,6.296C473.665,319.139,473.178,322.099,469.721,322.099z"/>
	</g>
</g>
</svg>
