<?xml version="1.0" encoding="utf-8"?>
<!-- Generator: Adobe Illustrator 16.0.0, SVG Export Plug-In . SVG Version: 6.00 Build 0)  -->
<!DOCTYPE svg PUBLIC "-//W3C//DTD SVG 1.1//EN" "http://www.w3.org/Graphics/SVG/1.1/DTD/svg11.dtd">
<svg version="1.1" id="Layer_1" xmlns="http://www.w3.org/2000/svg" xmlns:xlink="http://www.w3.org/1999/xlink" x="0px" y="0px"
	 width="113.387px" height="53.857px" viewBox="0 0 113.387 53.857" enable-background="new 0 0 113.387 53.857"
	 xml:space="preserve">
<g>
	<g>
		<path fill="#5C4837" d="M54.549,5.549C44.205-3.005,32.121,0.144,25.387,3.073c21.617,4.583,26.635,19.442,26.635,19.442
			C44.787,10.005,31.38,6.102,21.493,5.013c-0.852,0.489-1.327,0.812-1.327,0.812s6.072,0.961,5.179,5.818
			c-1.179,6.409,0.125,15.609,11.263,17.104c15.506,2.078,16.237,6.532,16.789,11.929C53.397,40.674,70.512,18.751,54.549,5.549z
			 M8.036,34.457c-4.856,0-8.035,3.552-8.035,9.681c0,7.215,3.776,9.718,8.521,9.718c3.327,0,5.158-1.007,7.102-2.95l-2.43-2.28
			c-1.345,1.347-2.466,1.942-4.597,1.942c-3.104,0-4.821-2.055-4.821-5.307h12.296v-1.683C16.073,38.197,13.12,34.457,8.036,34.457z
			 M3.777,42.607c0.036-1.158,0.112-1.72,0.485-2.581c0.599-1.419,1.98-2.391,3.773-2.391c1.794,0,3.14,0.972,3.738,2.391
			c0.374,0.861,0.486,1.423,0.522,2.581H3.777z M25.482,48.027l-4.485-13.346H16.96l6.952,18.952h3.104l6.95-18.952h-4.037
			L25.482,48.027z M42.572,34.457c-4.858,0-8.035,3.552-8.035,9.681c0,7.215,3.776,9.718,8.521,9.718
			c3.327,0,5.158-1.007,7.101-2.95l-2.43-2.28c-1.345,1.347-2.466,1.942-4.596,1.942c-3.103,0-4.82-2.055-4.82-5.307h12.295v-1.683
			C50.608,38.197,47.655,34.457,42.572,34.457z M38.313,42.607c0.036-1.158,0.11-1.72,0.483-2.581
			c0.6-1.419,1.982-2.391,3.775-2.391c1.794,0,3.14,0.972,3.738,2.391c0.374,0.861,0.484,1.423,0.523,2.581H38.313z M61.861,45.771
			l-2.333-0.209c-2.032-0.21-2.928-0.897-2.928-2.421c0-1.795,1.285-2.782,3.676-2.782c1.585,0,2.929,0.421,4.037,1.227l1.014-1.018
			c-1.284-0.957-3.048-1.523-5.051-1.523c-3.137,0-5.172,1.584-5.172,4.096c0,2.271,1.436,3.526,4.336,3.767l2.39,0.209
			c1.914,0.21,2.75,0.896,2.75,2.422c0,1.943-1.496,2.93-4.334,2.93c-2.032,0-3.617-0.598-4.722-1.763l-1.048,1.046
			c1.465,1.405,3.317,2.062,5.828,2.062c3.557,0,5.77-1.643,5.77-4.273C66.075,46.728,64.253,46.011,61.861,45.771z M74.479,48.177
			V27.02h-3.813v21.38c0,2.805,1.567,5.233,5.197,5.233h2.354v-0.01C76.62,53.473,74.479,51.348,74.479,48.177z M86.059,34.457
			c-3.139,0-5.008,0.637-6.802,2.729l2.504,2.355c1.047-1.347,2.055-1.832,4.148-1.832c2.953,0,4.148,1.157,4.148,3.55v1.348h-5.008
			c-4.335,0-6.539,2.277-6.539,5.456c0,1.609,0.522,3.066,1.494,4.074c1.156,1.159,2.729,1.72,5.082,1.72s3.664-0.561,5.046-1.943
			v1.721h3.737V40.96C93.872,36.663,91.256,34.457,86.059,34.457z M90.059,46.792c0,1.348-0.261,2.242-0.822,2.805
			c-1.01,0.972-2.092,1.085-3.549,1.085c-2.393,0-3.477-0.974-3.477-2.692s1.158-2.729,3.399-2.729h4.449L90.059,46.792
			L90.059,46.792L90.059,46.792z M111.256,36.141c-1.047-1.046-2.691-1.683-4.599-1.683c-2.018,0-3.586,0.483-4.969,2.131V27.02
			h-3.813v26.613h3.738v-2.017c1.42,1.72,2.953,2.239,5.008,2.239c1.906,0,3.588-0.633,4.635-1.681
			c1.906-1.906,2.13-5.16,2.13-8.037S113.162,38.046,111.256,36.141z M105.649,50.457c-3.438,0-3.961-2.953-3.961-6.318
			c0-3.363,0.521-6.28,3.961-6.28c3.438,0,3.924,2.917,3.924,6.28C109.573,47.503,109.088,50.457,105.649,50.457z"/>
	</g>
</g>
</svg>
