<?xml version="1.0" encoding="utf-8"?>
<!-- Generator: Adobe Illustrator 16.0.0, SVG Export Plug-In . SVG Version: 6.00 Build 0)  -->
<!DOCTYPE svg PUBLIC "-//W3C//DTD SVG 1.1//EN" "http://www.w3.org/Graphics/SVG/1.1/DTD/svg11.dtd">
<svg version="1.1" id="Layer_1" xmlns="http://www.w3.org/2000/svg" xmlns:xlink="http://www.w3.org/1999/xlink" x="0px" y="0px"
	 width="113.386px" height="53.858px" viewBox="4.377 5.293 113.386 53.858" enable-background="new 4.377 5.293 113.386 53.858"
	 xml:space="preserve">
<g>
	<g>
		<path fill="#E7DFD4" d="M58.926,10.841C48.582,2.287,36.498,5.437,29.763,8.365C51.381,12.948,56.4,27.809,56.4,27.809
			c-7.236-12.512-20.642-16.415-30.53-17.503c-0.852,0.489-1.327,0.811-1.327,0.811s6.072,0.96,5.179,5.819
			c-1.178,6.409,0.125,15.609,11.263,17.104c15.507,2.079,16.237,6.533,16.789,11.93C57.774,45.967,74.89,24.042,58.926,10.841z
			 M12.413,39.75c-4.858,0-8.036,3.552-8.036,9.682c0,7.214,3.776,9.718,8.521,9.718c3.328,0,5.159-1.007,7.102-2.952l-2.43-2.279
			c-1.345,1.347-2.466,1.942-4.596,1.942c-3.103,0-4.822-2.055-4.822-5.307h12.296V48.87C20.449,43.489,17.496,39.75,12.413,39.75z
			 M8.153,47.9c0.036-1.16,0.112-1.721,0.484-2.582c0.599-1.418,1.981-2.391,3.775-2.391c1.794,0,3.14,0.972,3.738,2.391
			c0.374,0.861,0.485,1.422,0.523,2.582H8.153z M29.857,53.32l-4.485-13.346h-4.037l6.952,18.952h3.103l6.951-18.952h-4.038
			L29.857,53.32z M46.948,39.75c-4.858,0-8.035,3.552-8.035,9.682c0,7.214,3.776,9.718,8.521,9.718c3.328,0,5.16-1.007,7.103-2.952
			l-2.43-2.279c-1.345,1.347-2.467,1.942-4.597,1.942c-3.103,0-4.821-2.055-4.821-5.307h12.296V48.87
			C54.985,43.489,52.032,39.75,46.948,39.75z M42.689,47.9c0.036-1.16,0.111-1.721,0.484-2.582c0.599-1.418,1.982-2.391,3.775-2.391
			c1.794,0,3.141,0.972,3.738,2.391c0.374,0.861,0.485,1.422,0.524,2.582H42.689z M66.238,51.064l-2.333-0.208
			c-2.032-0.211-2.928-0.898-2.928-2.422c0-1.794,1.285-2.782,3.676-2.782c1.585,0,2.93,0.421,4.037,1.226l1.014-1.017
			c-1.284-0.957-3.048-1.523-5.051-1.523c-3.137,0-5.171,1.583-5.171,4.095c0,2.272,1.436,3.526,4.336,3.766l2.389,0.208
			c1.914,0.21,2.751,0.896,2.751,2.421c0,1.945-1.496,2.931-4.334,2.931c-2.032,0-3.617-0.598-4.722-1.763l-1.048,1.046
			c1.465,1.405,3.318,2.062,5.828,2.062c3.557,0,5.77-1.643,5.77-4.275C70.452,52.021,68.63,51.303,66.238,51.064z M78.856,53.47
			V32.313h-3.812v21.381c0,2.804,1.568,5.233,5.197,5.233h2.353v-0.01C80.997,58.766,78.856,56.64,78.856,53.47z M90.437,39.75
			c-3.137,0-5.008,0.637-6.801,2.729l2.504,2.356c1.047-1.346,2.056-1.832,4.15-1.832c2.953,0,4.148,1.158,4.148,3.55v1.349h-5.009
			c-4.334,0-6.539,2.277-6.539,5.455c0,1.609,0.523,3.067,1.496,4.074c1.156,1.159,2.728,1.72,5.082,1.72
			c2.353,0,3.664-0.561,5.045-1.945v1.721h3.738V46.253C98.25,41.955,95.634,39.75,90.437,39.75z M94.437,52.085
			c0,1.348-0.26,2.242-0.822,2.806c-1.01,0.972-2.092,1.085-3.55,1.085c-2.391,0-3.476-0.975-3.476-2.693s1.158-2.728,3.4-2.728
			h4.449v1.53H94.437z M115.634,41.433c-1.047-1.047-2.692-1.684-4.599-1.684c-2.019,0-3.586,0.485-4.969,2.131v-9.568h-3.813
			v26.612h3.737v-2.017c1.42,1.721,2.953,2.241,5.008,2.241c1.906,0,3.589-0.633,4.636-1.682c1.906-1.905,2.129-5.159,2.129-8.037
			C117.763,46.553,117.54,43.339,115.634,41.433z M110.027,55.75c-3.438,0-3.961-2.954-3.961-6.318c0-3.363,0.522-6.279,3.961-6.279
			c3.439,0,3.925,2.917,3.925,6.279C113.952,52.796,113.466,55.75,110.027,55.75z"/>
	</g>
</g>
</svg>
