<?xml version="1.0" encoding="utf-8"?>
<!-- Generator: Adobe Illustrator 16.0.0, SVG Export Plug-In . SVG Version: 6.00 Build 0)  -->
<!DOCTYPE svg PUBLIC "-//W3C//DTD SVG 1.1//EN" "http://www.w3.org/Graphics/SVG/1.1/DTD/svg11.dtd">
<svg version="1.1" id="Layer_1" xmlns="http://www.w3.org/2000/svg" xmlns:xlink="http://www.w3.org/1999/xlink" x="0px" y="0px"
	 width="22px" height="22px" viewBox="0 0 22 22" enable-background="new 0 0 22 22" xml:space="preserve">
<path fill="#FFFFFF" d="M13.198,2.024c1.169,0,2.171,0.086,2.464,0.125v2.853L13.97,5.005c-1.324,0-1.58,0.63-1.58,1.553v2.038h3.16
	l-0.412,3.192H12.39v8.188H9.095v-8.188H6.338V8.596h2.757V6.244C9.095,3.512,10.761,2.024,13.198,2.024 M13.198,0.024
	c-3.65,0-6.103,2.5-6.103,6.219v0.353H6.338c-1.104,0-2,0.896-2,2v3.192c0,1.104,0.896,2,2,2h0.757v6.188c0,1.104,0.896,2,2,2h3.295
	c1.104,0,2-0.896,2-2v-6.188h0.748c1.005,0,1.855-0.747,1.983-1.744l0.412-3.192c0.074-0.57-0.102-1.145-0.481-1.577
	c-0.163-0.185-0.356-0.336-0.569-0.448c0.695-0.313,1.179-1.013,1.179-1.824V2.15c0-1.002-0.742-1.85-1.736-1.982
	C15.511,0.112,14.404,0.024,13.198,0.024L13.198,0.024z"/>
</svg>
