<?xml version="1.0" encoding="utf-8"?>
<!-- Generator: Adobe Illustrator 16.0.0, SVG Export Plug-In . SVG Version: 6.00 Build 0)  -->
<!DOCTYPE svg PUBLIC "-//W3C//DTD SVG 1.1//EN" "http://www.w3.org/Graphics/SVG/1.1/DTD/svg11.dtd">
<svg version="1.1" id="Layer_1" xmlns="http://www.w3.org/2000/svg" xmlns:xlink="http://www.w3.org/1999/xlink" x="0px" y="0px"
	 width="22px" height="22px" viewBox="0 0 22 22" enable-background="new 0 0 22 22" xml:space="preserve">
<g>
	<path fill="#FFFFFF" d="M10.998,5.347c-3.153,0-5.708,2.557-5.708,5.709c0,3.152,2.555,5.708,5.708,5.708
		c3.152,0,5.713-2.556,5.713-5.708C16.711,7.904,14.15,5.347,10.998,5.347z M10.998,14.758c-2.042,0-3.699-1.656-3.699-3.701
		c0-2.044,1.657-3.702,3.699-3.702c2.046,0,3.702,1.658,3.702,3.702C14.7,13.102,13.044,14.758,10.998,14.758z"/>
	<path fill="#FFFFFF" d="M15.65,0H6.349C2.842,0-0.002,2.843-0.002,6.351v9.301C-0.002,19.16,2.842,22,6.349,22h9.303
		c3.507,0,6.351-2.84,6.351-6.348V6.351C22.002,2.843,19.158,0,15.65,0z M19.977,15.816c0,2.326-1.889,4.217-4.218,4.217H6.238
		c-2.326,0-4.217-1.891-4.217-4.217v-9.52c0-2.329,1.891-4.215,4.217-4.215h9.521c2.329,0,4.218,1.886,4.218,4.215V15.816z"/>
	<circle fill="#FFFFFF" cx="16.9" cy="5.131" r="1.33"/>
</g>
</svg>
