<?xml version="1.0" encoding="utf-8"?>
<!-- Generator: Adobe Illustrator 16.0.0, SVG Export Plug-In . SVG Version: 6.00 Build 0)  -->
<!DOCTYPE svg PUBLIC "-//W3C//DTD SVG 1.1//EN" "http://www.w3.org/Graphics/SVG/1.1/DTD/svg11.dtd">
<svg version="1.1" id="Layer_1" xmlns="http://www.w3.org/2000/svg" xmlns:xlink="http://www.w3.org/1999/xlink" x="0px" y="0px"
	 width="22px" height="22px" viewBox="0 0 22 22" enable-background="new 0 0 22 22" xml:space="preserve">
<path fill="#FFFFFF" d="M14.841,2.049c0.515,0,0.935,0.416,0.935,0.928v7.324c-0.108,2.231-0.728,6.354-5.002,9.642
	C10.72,19.984,10.654,20,10.585,20c-0.046,0-0.093-0.008-0.139-0.02c-0.1-0.021-0.221-0.148-0.221-0.148l-2.47-2.771
	c-0.069-0.098-0.132-0.189-0.132-0.313c0.002-0.16,0.078-0.271,0.182-0.373c0.011-0.008,1.326-1.1,1.944-2.086
	c0.548-0.873,0.927-1.861,0.951-2.764H7.159c-0.518,0-0.934-0.416-0.934-0.929V2.979c0-0.513,0.416-0.928,0.934-0.928L14.841,2.049
	 M14.841,0.049H7.159c-1.618,0-2.934,1.313-2.934,2.928v7.619c0,1.615,1.316,2.929,2.934,2.929H7.84
	C7.46,14,6.878,14.543,6.576,14.797l-0.06,0.043l-0.101,0.098c-0.644,0.622-0.786,1.314-0.792,1.785
	c0,0.789,0.364,1.302,0.501,1.494l0.064,0.091l0.074,0.083l2.47,2.771l0.022,0.025l0.023,0.023c0.24,0.252,0.636,0.573,1.182,0.709
	c0.207,0.053,0.417,0.08,0.625,0.08c0.517,0,1.001-0.162,1.4-0.469c3.617-2.781,5.563-6.525,5.787-11.134l0.002-0.049V10.3V2.979
	C17.773,1.363,16.458,0.049,14.841,0.049L14.841,0.049z"/>
</svg>
