<?xml version="1.0" encoding="utf-8"?>
<!-- Generator: Adobe Illustrator 16.0.0, SVG Export Plug-In . SVG Version: 6.00 Build 0)  -->
<!DOCTYPE svg PUBLIC "-//W3C//DTD SVG 1.1//EN" "http://www.w3.org/Graphics/SVG/1.1/DTD/svg11.dtd">
<svg version="1.1" id="Layer_1" xmlns="http://www.w3.org/2000/svg" xmlns:xlink="http://www.w3.org/1999/xlink" x="0px" y="0px"
	 width="22px" height="22px" viewBox="0 0 22 22" enable-background="new 0 0 22 22" xml:space="preserve">
<path fill="#FFFFFF" d="M14.455,5.301c1.057,0,2.014,0.451,2.686,1.172c0.838-0.167,1.629-0.476,2.338-0.9
	c-0.273,0.864-0.857,1.594-1.617,2.054c0.744-0.091,1.455-0.29,2.115-0.586c-0.496,0.744-1.121,1.396-1.84,1.921
	c0.008,0.159,0.01,0.321,0.01,0.48C18.146,14.346,14.445,20,7.669,20c-2.08,0-4.015-0.615-5.645-1.666
	c0.288,0.032,0.583,0.049,0.878,0.049c1.727,0,3.314-0.594,4.575-1.588c-1.611-0.029-2.974-1.102-3.442-2.576
	c0.228,0.043,0.455,0.064,0.696,0.064c0.333,0,0.66-0.045,0.969-0.128c-1.684-0.342-2.954-1.842-2.954-3.639V10.47
	c0.498,0.278,1.064,0.445,1.667,0.464c-0.987-0.666-1.638-1.801-1.638-3.089c0-0.678,0.182-1.317,0.498-1.863
	c1.819,2.242,4.53,3.721,7.591,3.875c-0.062-0.272-0.096-0.555-0.096-0.847C10.769,6.962,12.418,5.301,14.455,5.301 M14.455,3.301
	c-2.619,0-4.83,1.787-5.488,4.211C7.361,7.025,5.911,6.06,4.826,4.723c-0.381-0.47-0.953-0.74-1.553-0.74
	c-0.052,0-0.104,0.002-0.156,0.006C2.462,4.041,1.874,4.41,1.543,4.979C1.041,5.845,0.775,6.836,0.775,7.845
	c0,0.56,0.081,1.108,0.235,1.63c-0.17,0.298-0.264,0.64-0.264,0.995c0,1.379,0.48,2.659,1.291,3.659
	c-0.01,0.232,0.02,0.467,0.092,0.696c0.18,0.566,0.443,1.091,0.772,1.558c-0.222,0-0.44-0.012-0.648-0.035
	c-0.077-0.01-0.154-0.014-0.23-0.014c-0.836,0-1.595,0.523-1.882,1.326c-0.313,0.875,0.017,1.852,0.798,2.354
	C2.951,21.313,5.278,22,7.668,22c7.615,0,12.242-6.069,12.469-12.094c0.567-0.52,1.07-1.107,1.502-1.754
	c0.494-0.742,0.438-1.721-0.137-2.401c-0.009-0.011-0.02-0.022-0.029-0.034c0.047-0.65-0.228-1.294-0.754-1.711
	c-0.361-0.286-0.8-0.432-1.242-0.432c-0.354,0-0.709,0.094-1.025,0.284c-0.27,0.161-0.551,0.297-0.842,0.408
	C16.684,3.644,15.583,3.301,14.455,3.301L14.455,3.301z"/>
</svg>
