<?xml version="1.0" encoding="utf-8"?>
<!-- Generator: Adobe Illustrator 16.0.0, SVG Export Plug-In . SVG Version: 6.00 Build 0)  -->
<!DOCTYPE svg PUBLIC "-//W3C//DTD SVG 1.1//EN" "http://www.w3.org/Graphics/SVG/1.1/DTD/svg11.dtd">
<svg version="1.1" id="Layer_1" xmlns="http://www.w3.org/2000/svg" xmlns:xlink="http://www.w3.org/1999/xlink" x="0px" y="0px"
	 width="22px" height="22px" viewBox="0 0 22 22" enable-background="new 0 0 22 22" xml:space="preserve">
<path fill="#FFFFFF" d="M10.999,7.176c2.595,0,5.86,0.129,6.538,0.232c1.184,0.19,1.822,0.72,2.166,2.104
	c0.115,0.46,0.271,3.002,0.271,3.969v0.215c0,0.969-0.156,3.508-0.271,3.973c-0.344,1.379-0.982,1.91-2.166,2.102
	c-0.68,0.103-3.947,0.231-6.544,0.231L11.005,20c-2.595,0-5.864-0.128-6.541-0.23c-1.183-0.19-1.826-0.723-2.165-2.102
	c-0.116-0.465-0.274-3.003-0.274-3.973V13.48c0-0.967,0.158-3.509,0.274-3.969c0.339-1.381,0.982-1.914,2.165-2.104
	C5.141,7.305,8.407,7.176,10.999,7.176 M8.848,15.906l4.304-2.371L8.848,11.27V15.906 M10.999,5.176
	c-2.335,0-5.904,0.113-6.835,0.254C2.11,5.761,0.871,6.939,0.356,9.035c-0.197,0.779-0.332,3.666-0.332,4.445v0.215
	c0,0.778,0.135,3.66,0.334,4.457c0.513,2.086,1.752,3.264,3.788,3.591c0.935,0.142,4.442,0.254,6.783,0.256
	c0.021,0,0.043,0.001,0.064,0.001c2.335,0,5.907-0.113,6.842-0.254c2.049-0.33,3.289-1.506,3.81-3.596
	c0.197-0.799,0.332-3.678,0.332-4.455V13.48c0-0.778-0.135-3.663-0.334-4.455c-0.517-2.089-1.756-3.266-3.787-3.593
	C16.904,5.289,13.334,5.176,10.999,5.176L10.999,5.176z"/>
</svg>
