<?xml version="1.0" encoding="utf-8"?>
<!-- Generator: Adobe Illustrator 16.0.0, SVG Export Plug-In . SVG Version: 6.00 Build 0)  -->
<!DOCTYPE svg PUBLIC "-//W3C//DTD SVG 1.1//EN" "http://www.w3.org/Graphics/SVG/1.1/DTD/svg11.dtd">
<svg version="1.1" id="Layer_1" xmlns="http://www.w3.org/2000/svg" xmlns:xlink="http://www.w3.org/1999/xlink" x="0px" y="0px"
	 width="17.008px" height="17.008px" viewBox="289.136 412.441 17.008 17.008"
	 enable-background="new 289.136 412.441 17.008 17.008" xml:space="preserve">
<g>
	<path fill="#333333" d="M296.534,427.24c-1.976,0-3.834-0.77-5.232-2.168c-1.397-1.396-2.167-3.256-2.166-5.231
		c0-1.977,0.77-3.835,2.167-5.233c1.397-1.397,3.256-2.167,5.232-2.167s3.833,0.77,5.232,2.167c1.398,1.398,2.168,3.256,2.168,5.233
		c0,1.976-0.77,3.835-2.168,5.231C300.371,426.47,298.509,427.24,296.534,427.24z M296.534,414.396
		c-1.454,0-2.821,0.566-3.849,1.594c-1.028,1.028-1.595,2.396-1.595,3.851c0,1.454,0.566,2.822,1.594,3.851
		c1.028,1.027,2.396,1.594,3.85,1.594s2.823-0.566,3.85-1.594c1.027-1.028,1.595-2.397,1.594-3.851c0-1.455-0.566-2.822-1.595-3.851
		S297.988,414.396,296.534,414.396z"/>
	
		<rect x="300.119" y="425.571" transform="matrix(-0.7072 -0.707 0.707 -0.7072 216.111 942.5989)" fill="#333333" width="6.249" height="1.955"/>
</g>
</svg>
