<?xml version="1.0" encoding="utf-8"?>
<!-- Generator: Adobe Illustrator 16.0.0, SVG Export Plug-In . SVG Version: 6.00 Build 0)  -->
<!DOCTYPE svg PUBLIC "-//W3C//DTD SVG 1.1//EN" "http://www.w3.org/Graphics/SVG/1.1/DTD/svg11.dtd">
<svg version="1.1" id="Layer_1" xmlns="http://www.w3.org/2000/svg" xmlns:xlink="http://www.w3.org/1999/xlink" x="0px" y="0px"
	 width="113.386px" height="53.858px" viewBox="4.377 5.293 113.386 53.858" enable-background="new 4.377 5.293 113.386 53.858"
	 xml:space="preserve">
<g>
	<g>
		<path fill="#5C4837" d="M58.926,10.841C48.582,2.287,36.498,5.436,29.763,8.365c21.618,4.583,26.636,19.443,26.636,19.443
			c-7.235-12.511-20.642-16.414-30.53-17.503c-0.852,0.489-1.327,0.811-1.327,0.811s6.072,0.961,5.179,5.819
			c-1.178,6.409,0.125,15.609,11.263,17.104c15.507,2.079,16.237,6.533,16.789,11.93C57.774,45.967,74.889,24.043,58.926,10.841z
			 M12.412,39.75c-4.857,0-8.035,3.552-8.035,9.681c0,7.215,3.776,9.718,8.521,9.718c3.327,0,5.158-1.007,7.102-2.951l-2.43-2.28
			c-1.345,1.347-2.466,1.943-4.597,1.943c-3.103,0-4.821-2.055-4.821-5.307h12.296v-1.683C20.449,43.489,17.496,39.75,12.412,39.75z
			 M8.153,47.9c0.036-1.159,0.112-1.72,0.485-2.581c0.599-1.419,1.981-2.391,3.774-2.391c1.794,0,3.14,0.972,3.738,2.391
			c0.374,0.861,0.486,1.422,0.523,2.581H8.153z M29.858,53.32l-4.485-13.346h-4.037l6.952,18.952h3.103l6.951-18.952h-4.038
			L29.858,53.32z M46.948,39.75c-4.858,0-8.035,3.552-8.035,9.681c0,7.215,3.776,9.718,8.521,9.718c3.327,0,5.159-1.007,7.102-2.951
			l-2.43-2.28c-1.345,1.347-2.466,1.943-4.596,1.943c-3.103,0-4.821-2.055-4.821-5.307h12.296v-1.683
			C54.985,43.489,52.032,39.75,46.948,39.75z M42.689,47.9c0.036-1.159,0.111-1.72,0.484-2.581c0.599-1.419,1.982-2.391,3.775-2.391
			c1.794,0,3.141,0.972,3.738,2.391c0.374,0.861,0.485,1.422,0.524,2.581H42.689z M66.238,51.064l-2.333-0.209
			c-2.032-0.21-2.928-0.898-2.928-2.421c0-1.795,1.285-2.782,3.676-2.782c1.585,0,2.929,0.42,4.037,1.226l1.014-1.017
			c-1.284-0.957-3.048-1.524-5.051-1.524c-3.137,0-5.172,1.584-5.172,4.096c0,2.271,1.436,3.526,4.336,3.766l2.39,0.209
			c1.914,0.21,2.75,0.896,2.75,2.422c0,1.944-1.496,2.93-4.334,2.93c-2.032,0-3.617-0.598-4.722-1.763l-1.048,1.046
			c1.465,1.405,3.318,2.062,5.828,2.062c3.557,0,5.77-1.643,5.77-4.274C70.452,52.021,68.63,51.304,66.238,51.064z M78.856,53.47
			V32.313h-3.812v21.381c0,2.804,1.567,5.233,5.197,5.233h2.353v-0.01C80.997,58.766,78.856,56.641,78.856,53.47z M90.437,39.75
			c-3.138,0-5.008,0.637-6.802,2.729l2.504,2.355c1.047-1.346,2.055-1.832,4.149-1.832c2.953,0,4.148,1.157,4.148,3.55v1.348h-5.008
			c-4.334,0-6.54,2.277-6.54,5.456c0,1.609,0.523,3.066,1.496,4.074c1.156,1.159,2.728,1.72,5.082,1.72
			c2.353,0,3.664-0.561,5.045-1.944v1.721h3.738V46.253C98.25,41.956,95.634,39.75,90.437,39.75z M94.437,52.085
			c0,1.348-0.26,2.242-0.822,2.805c-1.01,0.972-2.092,1.085-3.549,1.085c-2.392,0-3.476-0.974-3.476-2.693
			c0-1.718,1.158-2.728,3.399-2.728h4.449v1.53H94.437z M115.634,41.434c-1.047-1.046-2.692-1.683-4.599-1.683
			c-2.018,0-3.586,0.484-4.969,2.131v-9.569h-3.813v26.613h3.738v-2.017c1.42,1.72,2.953,2.24,5.008,2.24
			c1.906,0,3.588-0.633,4.635-1.681c1.906-1.906,2.129-5.16,2.129-8.037C117.763,46.554,117.54,43.339,115.634,41.434z
			 M110.027,55.75c-3.438,0-3.961-2.953-3.961-6.318c0-3.363,0.522-6.28,3.961-6.28c3.439,0,3.924,2.917,3.924,6.28
			C113.951,52.796,113.466,55.75,110.027,55.75z"/>
	</g>
</g>
</svg>
